Coordinates
version=1
nRows=16
nColumns=22
inDegrees=yes

Units are S.I. units (second, meters, Newtons, ...)
If the header above contains a line with 'inDegrees', this indicates whether rotational values are in degrees (yes) or radians (no).

endheader
time	pelvis_tilt	pelvis_list	pelvis_rotation	pelvis_tx	pelvis_ty	pelvis_tz	hip_flexion_r	hip_adduction_r	hip_rotation_r	knee_angle_r	ankle_angle_r	subtalar_angle_r	hip_flexion_l	hip_adduction_l	hip_rotation_l	knee_angle_l	ankle_angle_l	subtalar_angle_l	lumbar_extension	lumbar_bending	lumbar_rotation
      3.73000000	      3.82507701	     -4.07309273	    -92.10903248	      0.44589735	      0.89702656	      0.85726476	      1.51689725	     -6.36703817	      3.30629111	    -55.99045495	      6.06792551	     -0.80527596	     14.84017244	      4.11961573	     -3.34865658	    -24.64950384	      6.62605176	     -2.66403201	     -6.84161569	     -3.18969596	      6.75213232
      3.74000000	      3.81704146	     -4.12473135	    -92.07130675	      0.44804610	      0.89818380	      0.86258903	      2.19206287	     -6.71306562	      2.51754794	    -56.29664265	      7.18119108	     -1.97067836	     14.22331188	      4.32815240	     -3.22331713	    -24.32189880	      6.79174213	     -2.89612656	     -7.03571850	     -3.22126639	      6.39716404
      3.75000000	      3.83047193	     -4.13834855	    -92.03550457	      0.45011178	      0.89923515	      0.86768183	      2.88576837	     -7.08519769	      1.74765427	    -56.41430327	      8.24002795	     -2.81212644	     13.65172084	      4.55216760	     -3.06675511	    -23.96738419	      6.94920215	     -3.02240180	     -7.19566469	     -3.28286098	      6.04018647
      3.76000000	      3.73056664	     -4.17065498	    -92.08051993	      0.45188456	      0.90027767	      0.87245189	      3.51782234	     -7.26153226	      1.16552585	    -56.28721247	      9.41868401	     -4.13150124	     13.12171829	      4.59160412	     -3.09868744	    -23.70243896	      7.10311775	     -3.19597367	     -7.41222473	     -3.22582294	      5.74629477
      3.77000000	      3.64266758	     -4.16626114	    -92.15450305	      0.45355017	      0.90120744	      0.87699323	      4.17124131	     -7.44426549	      0.63132587	    -55.98132211	     10.47848721	     -5.02736444	     12.64739805	      4.62953926	     -3.14445276	    -23.43483743	      7.26260983	     -3.26333464	     -7.59515015	     -3.18664024	      5.49149619
      3.78000000	      3.53842822	     -4.15460986	    -92.27112143	      0.45506174	      0.90208646	      0.88131708	      4.79806516	     -7.57637560	      0.19321147	    -55.47617109	     11.47190809	     -5.76029912	     12.19913994	      4.62686548	     -3.24696047	    -23.17502068	      7.39701535	     -3.30108115	     -7.78368577	     -3.13159617	      5.23835928
      3.79000000	      3.42027526	     -4.13821839	    -92.42522925	      0.45644197	      0.90291256	      0.88545415	      5.38963817	     -7.66733574	     -0.17009901	    -54.77627804	     12.39817596	     -6.35135136	     11.77409830	      4.59097113	     -3.40075547	    -22.92692901	      7.53308809	     -3.31129496	     -7.97680878	     -3.06100076	      5.00280840
      3.80000000	      3.30060494	     -4.12432597	    -92.60527329	      0.45770819	      0.90368834	      0.88946299	      5.92960702	     -7.73973516	     -0.49063352	    -53.88920312	     13.24811481	     -6.73559849	     11.35998813	      4.54192325	     -3.59269590	    -22.69069313	      7.71808410	     -3.30056299	     -8.17246510	     -2.99032364	      4.77297086
      3.81000000	      3.15010543	     -4.10715437	    -92.81339756	      0.45885342	      0.90443439	      0.89331069	      6.42460186	     -7.74341377	     -0.74100122	    -52.82315931	     14.06378534	     -7.22938572	     10.96001847	      4.45007056	     -3.80505926	    -22.45658695	      7.80387923	     -3.30389398	     -8.37272292	     -2.88006689	      4.55739898
      3.82000000	      3.00794290	     -4.09497240	    -93.01966242	      0.45993880	      0.90512582	      0.89708701	      6.85650517	     -7.75525530	     -1.00624868	    -51.59715321	     14.80674789	     -7.51663942	     10.56690105	      4.36507523	     -4.03284025	    -22.23799468	      7.98782990	     -3.30244795	     -8.57015211	     -2.77649866	      4.32646057
      3.83000000	      2.85879773	     -4.08367629	    -93.22656480	      0.46095137	      0.90579064	      0.90077543	      7.22630103	     -7.73810879	     -1.25343838	    -50.21486832	     15.51097806	     -7.83867235	     10.17657990	      4.27448989	     -4.24822629	    -22.01769982	      8.13221371	     -3.32108542	     -8.76359585	     -2.66243051	      4.09252985
      3.84000000	      2.70209869	     -4.06830616	    -93.42341290	      0.46190116	      0.90641600	      0.90438443	      7.53688904	     -7.69382688	     -1.49484053	    -48.69337024	     16.16994620	     -8.13150214	      9.80149720	      4.17758010	     -4.44391444	    -21.80817585	      8.28748194	     -3.35411485	     -8.94452290	     -2.53780133	      3.85302408
      3.85000000	      2.53790452	     -4.05809158	    -93.61341311	      0.46277829	      0.90704120	      0.90793690	      7.77216677	     -7.61901410	     -1.72791657	    -47.03571453	     16.78506488	     -8.49153065	      9.41247696	      4.07998706	     -4.58487299	    -21.57806043	      8.41183342	     -3.41492743	     -9.11975657	     -2.40728288	      3.64664674
      3.86000000	      2.35505202	     -4.03528085	    -93.77770008	      0.46359215	      0.90760685	      0.91141964	      7.95484783	     -7.49549676	     -1.95490849	    -45.27408072	     17.32035147	     -8.65796665	      9.06933254	      3.95270223	     -4.74869753	    -21.40233390	      8.61055393	     -3.46589937	     -9.27138863	     -2.25353895	      3.38875692
      3.87000000	      2.16193521	     -4.02223682	    -93.92554212	      0.46433674	      0.90818234	      0.91485233	      8.05388438	     -7.33180482	     -2.16221908	    -43.40716743	     17.78948749	     -8.77128809	      8.71466551	      3.81732381	     -4.86833904	    -21.21921063	      8.78532311	     -3.53217023	     -9.42118446	     -2.09082077	      3.16059403
      3.88000000	      1.96023006	     -4.00890461	    -94.05841846	      0.46499466	      0.90874026	      0.91823550	      8.08891916	     -7.12472717	     -2.33887319	    -41.46683535	     18.17999490	     -8.77162451	      8.36739627	      3.67022342	     -4.95972258	    -21.04461650	      8.96035499	     -3.60131207	     -9.55585695	     -1.92612956	      2.95666550
